<svg width="79" height="34" viewBox="0 0 79 34" fill="none" xmlns="http://www.w3.org/2000/svg">
<path d="M0 32.8125V2.26704H13.2443C15.571 2.26704 17.5249 2.58026 19.1058 3.20668C20.6967 3.8331 21.8949 4.71804 22.7003 5.8615C23.5156 7.00497 23.9233 8.35227 23.9233 9.90341C23.9233 11.027 23.6747 12.0511 23.1776 12.9759C22.6903 13.9006 22.0043 14.6761 21.1193 15.3026C20.2344 15.919 19.2003 16.3466 18.017 16.5852V16.8835C19.3295 16.9332 20.5227 17.2663 21.5966 17.8828C22.6705 18.4893 23.5256 19.3295 24.1619 20.4034C24.7983 21.4673 25.1165 22.7202 25.1165 24.1619C25.1165 25.8324 24.679 27.3189 23.804 28.6214C22.9389 29.924 21.706 30.9482 20.1051 31.6939C18.5043 32.4396 16.5952 32.8125 14.3778 32.8125H0ZM8.29261 26.1903H12.1705C13.5625 26.1903 14.6065 25.9318 15.3026 25.4148C15.9986 24.8878 16.3466 24.1122 16.3466 23.0881C16.3466 22.3722 16.1825 21.7656 15.8544 21.2685C15.5263 20.7713 15.0589 20.3935 14.4524 20.1349C13.8558 19.8764 13.1349 19.7472 12.2898 19.7472H8.29261V26.1903ZM8.29261 14.6165H11.6932C12.419 14.6165 13.0604 14.5021 13.6172 14.2734C14.174 14.0447 14.6065 13.7166 14.9148 13.2891C15.233 12.8516 15.392 12.3196 15.392 11.6932C15.392 10.7486 15.054 10.0277 14.3778 9.53054C13.7017 9.02344 12.8466 8.76989 11.8125 8.76989H8.29261V14.6165ZM25.234 32.8125V9.90341H33.467V32.8125H25.234ZM29.3505 7.51704C28.2368 7.51704 27.2823 7.14915 26.4868 6.41335C25.6914 5.67756 25.2937 4.79261 25.2937 3.75852C25.2937 2.72443 25.6914 1.83949 26.4868 1.10369C27.2823 0.367897 28.2368 0 29.3505 0C30.4741 0 31.4286 0.367897 32.2141 1.10369C33.0096 1.83949 33.4073 2.72443 33.4073 3.75852C33.4073 4.79261 33.0096 5.67756 32.2141 6.41335C31.4286 7.14915 30.4741 7.51704 29.3505 7.51704ZM42.9547 2.26704V32.8125H34.7217V2.26704H42.9547ZM55.843 32.8125H44.0902V2.26704H55.7237C58.8657 2.26704 61.5802 2.87855 63.8671 4.10156C66.164 5.31463 67.9339 7.06463 69.1768 9.35156C70.4296 11.6286 71.0561 14.358 71.0561 17.5398C71.0561 20.7216 70.4346 23.456 69.1917 25.7429C67.9488 28.0199 66.1889 29.7699 63.9119 30.9929C61.6349 32.206 58.9453 32.8125 55.843 32.8125ZM52.3828 25.7727H55.5447C57.0561 25.7727 58.3437 25.5291 59.4076 25.0419C60.4815 24.5547 61.2968 23.7145 61.8537 22.5213C62.4204 21.3281 62.7038 19.6676 62.7038 17.5398C62.7038 15.4119 62.4154 13.7514 61.8387 12.5582C61.272 11.3651 60.4367 10.5249 59.3331 10.0376C58.2393 9.55042 56.897 9.30682 55.3061 9.30682H52.3828V25.7727ZM74.6189 33.2898C73.4655 33.2898 72.4761 32.8871 71.6509 32.0817C70.8355 31.2663 70.4328 30.277 70.4428 29.1136C70.4328 27.9801 70.8355 27.0107 71.6509 26.2053C72.4761 25.3999 73.4655 24.9972 74.6189 24.9972C75.7127 24.9972 76.6771 25.3999 77.5124 26.2053C78.3575 27.0107 78.7851 27.9801 78.795 29.1136C78.7851 29.8892 78.5813 30.5952 78.1835 31.2315C77.7958 31.858 77.2886 32.3601 76.6622 32.7379C76.0358 33.1058 75.3547 33.2898 74.6189 33.2898Z" fill="black"/>
</svg>
